<svg xmlns="http://www.w3.org/2000/svg" x="0px" y="0px"
     width="50" height="50"
     viewBox="0 0 252 252"
     style="fill:#000000;"><g transform="translate(1.26,1.26) scale(0.99,0.99)"><g fill="none" fill-rule="nonzero" stroke="none" stroke-width="1" stroke-linecap="butt" stroke-linejoin="miter" stroke-miterlimit="10" stroke-dasharray="" stroke-dashoffset="0" font-family="none" font-weight="none" font-size="none" text-anchor="none" style="mix-blend-mode: normal"><path d="M0,252v-252h252v252z" fill="none"></path><g fill="#ffffff"><g id="surface1"><path d="M8.6625,10.08c-0.1575,0.03938 -0.315,0.09844 -0.4725,0.1575c-0.05906,0 -0.09844,-0.01969 -0.1575,0c-0.09844,0.03938 -0.21656,0.09844 -0.315,0.1575c-4.42969,1.06313 -7.7175,5.02031 -7.7175,9.765c0,5.57156 4.50844,10.08 10.08,10.08c5.57156,0 10.08,-4.50844 10.08,-10.08h23.4675c6.28031,0 9.54844,1.29938 11.97,3.465c2.38219,2.14594 4.31156,5.72906 5.985,11.34v0.1575l40.32,162.54c1.51594,5.76844 2.87438,11.69438 7.0875,16.5375c1.7325,2.00813 3.95719,3.64219 6.615,4.8825c-2.91375,3.50438 -4.725,7.89469 -4.725,12.7575c0,11.08406 9.07594,20.16 20.16,20.16c11.08406,0 20.16,-9.07594 20.16,-20.16c0,-3.70125 -1.08281,-7.0875 -2.835,-10.08h30.87c-1.75219,2.9925 -2.835,6.37875 -2.835,10.08c0,11.08406 9.07594,20.16 20.16,20.16c11.08406,0 20.16,-9.07594 20.16,-20.16c0,-5.17781 -2.10656,-9.80437 -5.355,-13.3875c0.57094,-1.53562 0.33469,-3.26812 -0.59062,-4.60687c-0.945,-1.35844 -2.48063,-2.16563 -4.13438,-2.16563h-77.0175c-7.75687,0 -10.78875,-1.65375 -12.915,-4.095c-2.10656,-2.40187 -3.54375,-6.65437 -5.04,-12.285v-0.1575l-3.465,-13.7025h92.4525c2.10656,0 3.99656,-1.31906 4.725,-3.3075l36.225,-95.76c0.57094,-1.53562 0.33469,-3.26812 -0.59062,-4.60687c-0.945,-1.35844 -2.48063,-2.16563 -4.13438,-2.16563h-154.8225l-10.71,-42.9975c0,-0.09844 0,-0.21656 0,-0.315c-1.92937,-6.49687 -4.41,-12.1275 -8.9775,-16.2225c-4.5675,-4.095 -10.92656,-5.985 -18.7425,-5.985h-33.5475c-0.1575,0 -0.315,0 -0.4725,0c-0.1575,0 -0.315,0 -0.4725,0c-0.1575,0 -0.315,0 -0.4725,0zM84.5775,85.68h145.0575l-32.445,85.68h-91.35zM155.7675,95.6025c-0.21656,0.03938 -0.43312,0.09844 -0.63,0.1575c-2.34281,0.53156 -3.99656,2.63813 -3.9375,5.04v20.16h-20.16c-0.1575,0 -0.315,0 -0.4725,0c-0.1575,0 -0.315,0 -0.4725,0c-2.77594,0.25594 -4.82344,2.73656 -4.5675,5.5125c0.25594,2.77594 2.73656,4.82344 5.5125,4.5675h20.16v20.16c-0.01969,1.81125 0.92531,3.50438 2.50031,4.42969c1.575,0.90563 3.50437,0.90563 5.07937,0c1.575,-0.92531 2.52,-2.61844 2.50031,-4.42969v-20.16h20.16c1.81125,0.01969 3.50438,-0.92531 4.42969,-2.50031c0.90563,-1.575 0.90563,-3.50437 0,-5.07937c-0.92531,-1.575 -2.61844,-2.52 -4.42969,-2.50031h-20.16v-20.16c0.05906,-1.45687 -0.53156,-2.85469 -1.575,-3.83906c-1.06312,-1.00406 -2.50031,-1.49625 -3.9375,-1.35844zM131.04,221.76c5.63063,0 10.08,4.44938 10.08,10.08c0,5.63063 -4.44937,10.08 -10.08,10.08c-5.63062,0 -10.08,-4.44937 -10.08,-10.08c0,-5.63062 4.44938,-10.08 10.08,-10.08zM196.56,221.76c5.63063,0 10.08,4.44938 10.08,10.08c0,5.63063 -4.44937,10.08 -10.08,10.08c-5.63062,0 -10.08,-4.44937 -10.08,-10.08c0,-5.63062 4.44938,-10.08 10.08,-10.08z"></path></g></g></g></g></svg>