<?xml version="1.0"?>
<svg xmlns="http://www.w3.org/2000/svg" xmlns:xlink="http://www.w3.org/1999/xlink" version="1.1" viewBox="0 0 224 224" width="100px" height="100px"><g transform="translate(-16.8,-16.8) scale(1.15,1.15)"><g fill="none" fill-rule="nonzero" stroke="none" stroke-width="1" stroke-linecap="butt" stroke-linejoin="miter" stroke-miterlimit="10" stroke-dasharray="" stroke-dashoffset="0" font-family="none" font-weight="none" font-size="none" text-anchor="none" style="mix-blend-mode: normal"><path d="M0,224v-224h224v224z" fill="none"/><g fill="#000000"><path d="M40.32,17.92c-12.31783,0 -22.4,10.08217 -22.4,22.4v143.36c0,12.31783 10.08217,22.4 22.4,22.4h143.36c12.31783,0 22.4,-10.08217 22.4,-22.4v-143.36c0,-12.31783 -10.08217,-22.4 -22.4,-22.4zM40.32,26.88h143.36c7.47481,0 13.44,5.96519 13.44,13.44v143.36c0,7.47481 -5.96519,13.44 -13.44,13.44h-143.36c-7.47481,0 -13.44,-5.96519 -13.44,-13.44v-143.36c0,-7.47481 5.96519,-13.44 13.44,-13.44zM62.72,49.3325c-4.90659,0 -9.3219,1.46657 -12.59125,4.2175c-3.26935,2.75093 -5.27625,6.86061 -5.27625,11.26125c0,8.36497 7.25566,14.8862 16.485,15.53125c0.00583,0.00293 0.01166,0.00585 0.0175,0.00875c0.43978,0.1499 0.90042,0.22962 1.365,0.23625c10.18308,0 17.8675,-7.13305 17.8675,-15.77625c-0.00081,-0.07881 -0.00373,-0.15759 -0.00875,-0.23625c-0.45584,-8.51303 -8.04556,-15.2425 -17.85875,-15.2425zM62.72,58.1875c6.23719,0 8.70003,2.78547 8.96875,6.7375c-0.05443,3.83598 -2.42754,6.8075 -8.96875,6.8075c-6.20662,0 -9.0125,-3.17853 -9.0125,-6.92125c0,-1.87136 0.68285,-3.2816 2.1175,-4.48875c1.43464,-1.20715 3.73759,-2.135 6.895,-2.135zM49.28,85.12c-2.47413,0.00025 -4.47975,2.00587 -4.48,4.48v85.12c0.00025,2.47413 2.00587,4.47975 4.48,4.48h26.88c2.47413,-0.00025 4.47975,-2.00587 4.48,-4.48v-26.27625v-58.84375c-0.00025,-2.47413 -2.00587,-4.47975 -4.48,-4.48zM89.6,85.12c-2.47413,0.00025 -4.47975,2.00587 -4.48,4.48v85.12c0.00025,2.47413 2.00587,4.47975 4.48,4.48h26.88c2.47413,-0.00025 4.47975,-2.00587 4.48,-4.48v-44.8c0,-3.71691 1.01425,-7.41424 2.8,-9.835c1.78575,-2.42076 4.03857,-3.87355 8.32125,-3.7975c4.41613,0.07594 6.75394,1.58878 8.5225,3.96375c1.76855,2.37497 2.75625,5.93542 2.75625,9.66875v44.8c0.00025,2.47413 2.00587,4.47975 4.48,4.48h26.88c2.47413,-0.00025 4.47975,-2.00587 4.48,-4.48v-48.1075c0,-13.26769 -3.92991,-23.7771 -10.66625,-30.8875c-6.73634,-7.11041 -16.10546,-10.605 -26.01375,-10.605c-9.41704,0 -16.58338,3.1579 -21.56,6.37875v-1.89875c-0.00025,-2.47413 -2.00587,-4.47975 -4.48,-4.48zM53.76,94.08h17.92v54.36375v21.79625h-17.92zM94.08,94.08h17.92v6.99125c0.00057,1.92642 1.23249,3.63684 3.05946,4.24781c1.82697,0.61097 3.83998,-0.01428 4.99929,-1.55281c0,0 7.03524,-9.68625 22.46125,-9.68625c7.85491,0 14.59076,2.60996 19.5125,7.805c4.92174,5.19503 8.2075,13.19839 8.2075,24.7275v43.6275h-17.92v-40.32c0,-5.22667 -1.2523,-10.63056 -4.52375,-15.02375c-3.27144,-4.39319 -8.77363,-7.45207 -15.5575,-7.56875c-6.81876,-0.12109 -12.40986,3.00141 -15.68875,7.44625c-3.27889,4.44484 -4.55,9.90316 -4.55,15.14625v40.32h-17.92z"/></g></g></g></svg>
