<?xml version="1.0"?>
<svg xmlns="http://www.w3.org/2000/svg" xmlns:xlink="http://www.w3.org/1999/xlink" version="1.1" viewBox="0 0 224 224" width="100px" height="100px"><g transform="translate(-4.48,-4.48) scale(1.04,1.04)"><g fill="none" fill-rule="nonzero" stroke="none" stroke-width="1" stroke-linecap="butt" stroke-linejoin="miter" stroke-miterlimit="10" stroke-dasharray="" stroke-dashoffset="0" font-family="none" font-weight="none" font-size="none" text-anchor="none" style="mix-blend-mode: normal"><path d="M0,224v-224h224v224z" fill="none"/><g fill="#000000"><path d="M112,8.96c-56.85436,0 -103.04,46.18564 -103.04,103.04c0,56.85436 46.18564,103.04 103.04,103.04c56.85436,0 103.04,-46.18564 103.04,-103.04c0,-56.85436 -46.18564,-103.04 -103.04,-103.04zM112,17.92c52.01201,0 94.08,42.06799 94.08,94.08c0,52.01201 -42.06799,94.08 -94.08,94.08c-52.01201,0 -94.08,-42.06799 -94.08,-94.08c0,-52.01201 42.06799,-94.08 94.08,-94.08zM114.555,49.28c-34.2496,0 -56.315,24.27908 -56.315,47.705c0,22.85696 12.65159,28.22211 15.30375,29.75875c2.64768,1.55008 4.52739,0.4606 5.11875,-1.645l1.5925,-6.3875c0,0 0.73871,-1.6954 -0.72625,-3.465c-1.80544,-2.17728 -5.705,-6.14285 -5.705,-16.02125c0,-17.61536 13.90781,-36.8025 39.12125,-36.8025c24.74752,0 33.22375,16.11554 33.22375,29.4525c0,16.58496 -7.94563,41.37875 -24.71875,41.37875c-10.416,0 -13.41375,-8.03656 -13.41375,-11.97c-0.0672,-1.33056 0.23758,-2.67134 0.3675,-3.3075c0.12992,-0.63168 4.36527,-14.11921 5.71375,-18.92625c3.02848,-10.7744 0.43778,-19.74 -9.4675,-19.74c-13.96416,0 -18.99114,19.65537 -12.8625,32.22625l-9.96625,40.80125c0,0 -1.3762,6.6801 -1.645,10.6225c-0.41216,6.05248 0.44807,15.00492 0.74375,17.675c0.21504,1.93536 0.21994,2.86153 1.1025,3.03625c0.88256,0.17024 2.38217,-1.323 3.59625,-3.115c1.5232,-2.25792 6.70565,-9.57278 8.81125,-14.2275c1.87712,-4.15296 2.21193,-4.25957 4.15625,-11.61125c1.94432,-7.35616 4.5675,-17.6925 4.5675,-17.6925c0,0 5.46819,9.5725 20.23875,9.5725c21.00672,0 42.3675,-18.29093 42.3675,-52.49125c0,-27.72224 -24.01588,-44.82625 -51.205,-44.82625z"/></g></g></g></svg>
